<mxfile host="65bd71144e">
    <diagram id="9eeb5DNkB4o3F77oknuN" name="Page-1">
        <mxGraphModel dx="720" dy="584" grid="1" gridSize="10" guides="1" tooltips="1" connect="1" arrows="1" fold="1" page="0" pageScale="1" pageWidth="1100" pageHeight="850" background="none" math="0" shadow="0">
            <root>
                <mxCell id="0"/>
                <mxCell id="1" parent="0"/>
                <mxCell id="317" value="Decentralized Organizational Structure (no single authority)" style="swimlane;shadow=0;strokeColor=#005700;fontColor=#ffffff;fontStyle=0;gradientColor=#000000;gradientDirection=radial;fillColor=#0000FF;fontSize=16;" vertex="1" parent="1">
                    <mxGeometry x="-40" y="-17.5" width="840" height="620" as="geometry"/>
                </mxCell>
                <mxCell id="321" value="" style="rounded=0;whiteSpace=wrap;html=1;shadow=0;fillColor=#000000;gradientColor=#00CC00;" vertex="1" parent="317">
                    <mxGeometry y="25" width="840" height="595" as="geometry"/>
                </mxCell>
                <mxCell id="15" style="edgeStyle=none;html=1;exitX=1;exitY=1;exitDx=0;exitDy=0;entryX=0;entryY=0;entryDx=0;entryDy=0;shadow=0;fillColor=#a20025;strokeColor=#6F0000;startArrow=classic;startFill=1;endArrow=classic;endFill=1;strokeWidth=2;" edge="1" parent="1" source="2" target="298">
                    <mxGeometry relative="1" as="geometry"/>
                </mxCell>
                <mxCell id="21" style="edgeStyle=none;html=1;exitX=0.5;exitY=1;exitDx=0;exitDy=0;shadow=0;fillColor=#a20025;strokeColor=#6F0000;startArrow=classic;startFill=1;endArrow=classic;endFill=1;strokeWidth=2;" edge="1" parent="1" source="2" target="11">
                    <mxGeometry relative="1" as="geometry"/>
                </mxCell>
                <mxCell id="2" value="Team" style="ellipse;whiteSpace=wrap;html=1;shadow=0;fillColor=#a20025;fontColor=#ffffff;strokeColor=#F0F0F0;" vertex="1" parent="1">
                    <mxGeometry x="100" y="100" width="60" height="60" as="geometry"/>
                </mxCell>
                <mxCell id="23" style="edgeStyle=none;html=1;exitX=1;exitY=0.5;exitDx=0;exitDy=0;strokeColor=#F0F0F0;startArrow=classic;startFill=1;endArrow=classic;endFill=1;" edge="1" parent="1" source="3" target="5">
                    <mxGeometry relative="1" as="geometry"/>
                </mxCell>
                <mxCell id="25" style="edgeStyle=none;html=1;exitX=1;exitY=0;exitDx=0;exitDy=0;entryX=0;entryY=1;entryDx=0;entryDy=0;strokeColor=#F0F0F0;startArrow=classic;startFill=1;endArrow=classic;endFill=1;" edge="1" parent="1" source="3" target="297">
                    <mxGeometry relative="1" as="geometry"/>
                </mxCell>
                <mxCell id="3" value="Team" style="ellipse;whiteSpace=wrap;html=1;fillColor=#2A2A2A;strokeColor=#F0F0F0;fontColor=#F0F0F0;" vertex="1" parent="1">
                    <mxGeometry x="100" y="460" width="60" height="60" as="geometry"/>
                </mxCell>
                <mxCell id="75" style="edgeStyle=none;html=1;exitX=1;exitY=1;exitDx=0;exitDy=0;entryX=0.5;entryY=0;entryDx=0;entryDy=0;fillColor=#0050ef;strokeColor=#F0F0F0;startArrow=classic;startFill=1;" edge="1" parent="1" source="4" target="69">
                    <mxGeometry relative="1" as="geometry"/>
                </mxCell>
                <mxCell id="77" style="edgeStyle=none;html=1;exitX=1;exitY=0.5;exitDx=0;exitDy=0;entryX=0;entryY=0;entryDx=0;entryDy=0;fillColor=#0050ef;strokeColor=#F0F0F0;startArrow=classic;startFill=1;" edge="1" parent="1" source="4" target="67">
                    <mxGeometry relative="1" as="geometry"/>
                </mxCell>
                <mxCell id="78" style="edgeStyle=none;html=1;exitX=1;exitY=0.5;exitDx=0;exitDy=0;entryX=0;entryY=1;entryDx=0;entryDy=0;fillColor=#0050ef;strokeColor=#F0F0F0;startArrow=classic;startFill=1;" edge="1" parent="1" source="4" target="66">
                    <mxGeometry relative="1" as="geometry"/>
                </mxCell>
                <mxCell id="79" style="edgeStyle=none;html=1;exitX=1;exitY=0;exitDx=0;exitDy=0;entryX=0;entryY=1;entryDx=0;entryDy=0;fillColor=#0050ef;strokeColor=#F0F0F0;startArrow=classic;startFill=1;" edge="1" parent="1" source="4" target="64">
                    <mxGeometry relative="1" as="geometry"/>
                </mxCell>
                <mxCell id="80" style="edgeStyle=none;html=1;entryX=0.5;entryY=1;entryDx=0;entryDy=0;fillColor=#0050ef;strokeColor=#F0F0F0;startArrow=classic;startFill=1;" edge="1" parent="1" target="65">
                    <mxGeometry relative="1" as="geometry">
                        <mxPoint x="670" y="460" as="sourcePoint"/>
                    </mxGeometry>
                </mxCell>
                <mxCell id="81" style="edgeStyle=none;html=1;exitX=0.5;exitY=0;exitDx=0;exitDy=0;entryX=0.5;entryY=1;entryDx=0;entryDy=0;fillColor=#0050ef;strokeColor=#F0F0F0;startArrow=classic;startFill=1;" edge="1" parent="1" source="4" target="63">
                    <mxGeometry relative="1" as="geometry"/>
                </mxCell>
                <mxCell id="82" style="edgeStyle=none;html=1;exitX=0;exitY=0;exitDx=0;exitDy=0;entryX=1;entryY=1;entryDx=0;entryDy=0;fillColor=#0050ef;strokeColor=#F0F0F0;startArrow=classic;startFill=1;" edge="1" parent="1" source="4" target="62">
                    <mxGeometry relative="1" as="geometry"/>
                </mxCell>
                <mxCell id="83" style="edgeStyle=none;html=1;exitX=0;exitY=0.5;exitDx=0;exitDy=0;entryX=1;entryY=1;entryDx=0;entryDy=0;fillColor=#0050ef;strokeColor=#F0F0F0;startArrow=classic;startFill=1;" edge="1" parent="1" source="4" target="61">
                    <mxGeometry relative="1" as="geometry"/>
                </mxCell>
                <mxCell id="84" style="edgeStyle=none;html=1;exitX=0;exitY=0.5;exitDx=0;exitDy=0;entryX=1;entryY=0;entryDx=0;entryDy=0;fillColor=#0050ef;strokeColor=#F0F0F0;startArrow=classic;startFill=1;" edge="1" parent="1" source="4" target="60">
                    <mxGeometry relative="1" as="geometry"/>
                </mxCell>
                <mxCell id="85" style="edgeStyle=none;html=1;exitX=0;exitY=1;exitDx=0;exitDy=0;entryX=1;entryY=0;entryDx=0;entryDy=0;fillColor=#0050ef;strokeColor=#F0F0F0;startArrow=classic;startFill=1;" edge="1" parent="1" source="4" target="59">
                    <mxGeometry relative="1" as="geometry"/>
                </mxCell>
                <mxCell id="86" style="edgeStyle=none;html=1;exitX=0.5;exitY=1;exitDx=0;exitDy=0;entryX=0.5;entryY=0;entryDx=0;entryDy=0;fillColor=#0050ef;strokeColor=#F0F0F0;startArrow=classic;startFill=1;" edge="1" parent="1" source="4" target="70">
                    <mxGeometry relative="1" as="geometry"/>
                </mxCell>
                <mxCell id="4" value="Team" style="ellipse;whiteSpace=wrap;html=1;fillColor=#0050ef;fontColor=#ffffff;strokeColor=#F0F0F0;" vertex="1" parent="1">
                    <mxGeometry x="640" y="460" width="60" height="60" as="geometry"/>
                </mxCell>
                <mxCell id="27" style="edgeStyle=none;html=1;exitX=1;exitY=0;exitDx=0;exitDy=0;entryX=0;entryY=1;entryDx=0;entryDy=0;strokeColor=#F0F0F0;startArrow=classic;startFill=1;endArrow=classic;endFill=1;" edge="1" parent="1" source="5" target="288">
                    <mxGeometry relative="1" as="geometry"/>
                </mxCell>
                <mxCell id="39" style="edgeStyle=none;html=1;exitX=1;exitY=0.5;exitDx=0;exitDy=0;strokeColor=#F0F0F0;startArrow=classic;startFill=1;endArrow=classic;endFill=1;" edge="1" parent="1" source="5" target="9">
                    <mxGeometry relative="1" as="geometry"/>
                </mxCell>
                <mxCell id="5" value="Team" style="ellipse;whiteSpace=wrap;html=1;fillColor=#2A2A2A;strokeColor=#F0F0F0;fontColor=#F0F0F0;" vertex="1" parent="1">
                    <mxGeometry x="280" y="460" width="60" height="60" as="geometry"/>
                </mxCell>
                <mxCell id="31" style="edgeStyle=none;html=1;exitX=0.5;exitY=1;exitDx=0;exitDy=0;entryX=0.5;entryY=0;entryDx=0;entryDy=0;strokeColor=#F0F0F0;startArrow=classic;startFill=1;endArrow=classic;endFill=1;" edge="1" parent="1" source="7" target="13">
                    <mxGeometry relative="1" as="geometry"/>
                </mxCell>
                <mxCell id="330" style="edgeStyle=none;html=1;exitX=0;exitY=1;exitDx=0;exitDy=0;entryX=1;entryY=0;entryDx=0;entryDy=0;shadow=0;fontSize=16;fontColor=#F0F0F0;startArrow=classic;startFill=1;endArrow=classic;endFill=1;strokeColor=#F0F0F0;" edge="1" parent="1" source="7" target="291">
                    <mxGeometry relative="1" as="geometry"/>
                </mxCell>
                <mxCell id="7" value="Team" style="ellipse;whiteSpace=wrap;html=1;fillColor=#2A2A2A;strokeColor=#F0F0F0;fontColor=#F0F0F0;" vertex="1" parent="1">
                    <mxGeometry x="640" y="100" width="60" height="60" as="geometry"/>
                </mxCell>
                <mxCell id="17" style="edgeStyle=none;html=1;exitX=1;exitY=1;exitDx=0;exitDy=0;entryX=0;entryY=0;entryDx=0;entryDy=0;strokeColor=#F0F0F0;startArrow=classic;startFill=1;endArrow=classic;endFill=1;" edge="1" parent="1" source="8" target="289">
                    <mxGeometry relative="1" as="geometry"/>
                </mxCell>
                <mxCell id="19" style="edgeStyle=none;html=1;exitX=1;exitY=0.5;exitDx=0;exitDy=0;entryX=0;entryY=0.5;entryDx=0;entryDy=0;strokeColor=#F0F0F0;startArrow=classic;startFill=1;endArrow=classic;endFill=1;" edge="1" parent="1" source="8" target="14">
                    <mxGeometry relative="1" as="geometry"/>
                </mxCell>
                <mxCell id="20" style="edgeStyle=none;html=1;exitX=0;exitY=0.5;exitDx=0;exitDy=0;entryX=1;entryY=0.5;entryDx=0;entryDy=0;shadow=0;fillColor=#a20025;strokeColor=#6F0000;startArrow=classic;startFill=1;endArrow=classic;endFill=1;strokeWidth=2;" edge="1" parent="1" source="8" target="2">
                    <mxGeometry relative="1" as="geometry"/>
                </mxCell>
                <mxCell id="8" value="Team" style="ellipse;whiteSpace=wrap;html=1;shadow=0;fillColor=#a20025;fontColor=#ffffff;strokeColor=#F0F0F0;" vertex="1" parent="1">
                    <mxGeometry x="280" y="100" width="60" height="60" as="geometry"/>
                </mxCell>
                <mxCell id="40" style="edgeStyle=none;html=1;exitX=1;exitY=0.5;exitDx=0;exitDy=0;strokeColor=#F0F0F0;startArrow=classic;startFill=1;endArrow=classic;endFill=1;" edge="1" parent="1" source="9" target="4">
                    <mxGeometry relative="1" as="geometry"/>
                </mxCell>
                <mxCell id="42" style="edgeStyle=none;html=1;exitX=1;exitY=0;exitDx=0;exitDy=0;entryX=0;entryY=1;entryDx=0;entryDy=0;strokeColor=#F0F0F0;startArrow=classic;startFill=1;endArrow=classic;endFill=1;" edge="1" parent="1" source="9" target="290">
                    <mxGeometry relative="1" as="geometry"/>
                </mxCell>
                <mxCell id="9" value="Team" style="ellipse;whiteSpace=wrap;html=1;fillColor=#2A2A2A;strokeColor=#F0F0F0;fontColor=#F0F0F0;" vertex="1" parent="1">
                    <mxGeometry x="460" y="460" width="60" height="60" as="geometry"/>
                </mxCell>
                <mxCell id="29" style="edgeStyle=none;html=1;exitX=1;exitY=0;exitDx=0;exitDy=0;entryX=0;entryY=1;entryDx=0;entryDy=0;strokeColor=#F0F0F0;startArrow=classic;startFill=1;endArrow=classic;endFill=1;" edge="1" parent="1" source="10" target="291">
                    <mxGeometry relative="1" as="geometry"/>
                </mxCell>
                <mxCell id="33" style="edgeStyle=none;html=1;exitX=0.5;exitY=1;exitDx=0;exitDy=0;entryX=0.5;entryY=0;entryDx=0;entryDy=0;strokeColor=#F0F0F0;startArrow=classic;startFill=1;endArrow=classic;endFill=1;" edge="1" parent="1" source="10" target="9">
                    <mxGeometry relative="1" as="geometry"/>
                </mxCell>
                <mxCell id="34" style="edgeStyle=none;html=1;exitX=0.5;exitY=0;exitDx=0;exitDy=0;entryX=0.5;entryY=1;entryDx=0;entryDy=0;strokeColor=#F0F0F0;startArrow=classic;startFill=1;endArrow=classic;endFill=1;" edge="1" parent="1" source="10" target="14">
                    <mxGeometry relative="1" as="geometry"/>
                </mxCell>
                <mxCell id="41" style="edgeStyle=none;html=1;exitX=1;exitY=0.5;exitDx=0;exitDy=0;strokeColor=#F0F0F0;startArrow=classic;startFill=1;" edge="1" parent="1" source="10" target="13">
                    <mxGeometry relative="1" as="geometry"/>
                </mxCell>
                <mxCell id="43" style="edgeStyle=none;html=1;exitX=1;exitY=1;exitDx=0;exitDy=0;entryX=0;entryY=0;entryDx=0;entryDy=0;startArrow=classic;strokeColor=#F0F0F0;startFill=1;endArrow=classic;endFill=1;" edge="1" parent="1" source="290" target="4">
                    <mxGeometry relative="1" as="geometry"/>
                </mxCell>
                <mxCell id="335" style="edgeStyle=none;html=1;exitX=0;exitY=0;exitDx=0;exitDy=0;entryX=1;entryY=1;entryDx=0;entryDy=0;shadow=0;fontSize=16;fontColor=#F0F0F0;startArrow=classic;startFill=1;endArrow=classic;endFill=1;strokeColor=#F0F0F0;strokeWidth=1;" edge="1" parent="1" source="10" target="289">
                    <mxGeometry relative="1" as="geometry"/>
                </mxCell>
                <mxCell id="337" style="edgeStyle=none;html=1;exitX=0;exitY=1;exitDx=0;exitDy=0;entryX=1;entryY=0;entryDx=0;entryDy=0;shadow=0;fontSize=16;fontColor=#F0F0F0;startArrow=classic;startFill=1;endArrow=classic;endFill=1;strokeColor=#F0F0F0;strokeWidth=1;" edge="1" parent="1" source="10" target="288">
                    <mxGeometry relative="1" as="geometry"/>
                </mxCell>
                <mxCell id="10" value="Team" style="ellipse;whiteSpace=wrap;html=1;fillColor=#2A2A2A;strokeColor=#F0F0F0;fontColor=#F0F0F0;" vertex="1" parent="1">
                    <mxGeometry x="460" y="280" width="60" height="60" as="geometry"/>
                </mxCell>
                <mxCell id="16" style="edgeStyle=none;html=1;exitX=1;exitY=0;exitDx=0;exitDy=0;entryX=0;entryY=1;entryDx=0;entryDy=0;shadow=0;fillColor=#a20025;strokeColor=#6F0000;startArrow=classic;startFill=1;endArrow=classic;endFill=1;strokeWidth=2;" edge="1" parent="1" source="11" target="298">
                    <mxGeometry relative="1" as="geometry"/>
                </mxCell>
                <mxCell id="22" style="edgeStyle=none;html=1;exitX=0.5;exitY=1;exitDx=0;exitDy=0;entryX=0.5;entryY=0;entryDx=0;entryDy=0;strokeColor=#F0F0F0;startArrow=classic;startFill=1;endArrow=classic;endFill=1;" edge="1" parent="1" source="11" target="3">
                    <mxGeometry relative="1" as="geometry"/>
                </mxCell>
                <mxCell id="24" style="edgeStyle=none;html=1;exitX=1;exitY=1;exitDx=0;exitDy=0;entryX=0;entryY=0;entryDx=0;entryDy=0;strokeColor=#F0F0F0;startArrow=classic;startFill=1;endArrow=classic;endFill=1;" edge="1" parent="1" source="11" target="297">
                    <mxGeometry relative="1" as="geometry"/>
                </mxCell>
                <mxCell id="36" style="edgeStyle=none;html=1;exitX=1;exitY=0.5;exitDx=0;exitDy=0;entryX=0;entryY=0.5;entryDx=0;entryDy=0;shadow=0;fillColor=#a20025;strokeColor=#6F0000;startArrow=classic;startFill=1;endArrow=classic;endFill=1;strokeWidth=2;" edge="1" parent="1" source="11" target="12">
                    <mxGeometry relative="1" as="geometry"/>
                </mxCell>
                <mxCell id="11" value="Team" style="ellipse;whiteSpace=wrap;html=1;shadow=0;fillColor=#a20025;fontColor=#ffffff;strokeColor=#F0F0F0;" vertex="1" parent="1">
                    <mxGeometry x="100" y="280" width="60" height="60" as="geometry"/>
                </mxCell>
                <mxCell id="18" style="edgeStyle=none;html=1;exitX=1;exitY=0;exitDx=0;exitDy=0;entryX=0;entryY=1;entryDx=0;entryDy=0;startArrow=classic;strokeColor=#F0F0F0;startFill=1;endArrow=classic;endFill=1;" edge="1" parent="1" source="289" target="14">
                    <mxGeometry relative="1" as="geometry"/>
                </mxCell>
                <mxCell id="26" style="edgeStyle=none;html=1;exitX=1;exitY=1;exitDx=0;exitDy=0;entryX=0;entryY=0;entryDx=0;entryDy=0;startArrow=classic;strokeColor=#F0F0F0;startFill=1;endArrow=classic;endFill=1;" edge="1" parent="1" source="288" target="9">
                    <mxGeometry relative="1" as="geometry"/>
                </mxCell>
                <mxCell id="35" style="edgeStyle=none;html=1;exitX=1;exitY=0.5;exitDx=0;exitDy=0;entryX=0;entryY=0.5;entryDx=0;entryDy=0;startArrow=classic;startFill=1;fillColor=#a20025;strokeColor=#F0F0F0;" edge="1" parent="1" source="12" target="10">
                    <mxGeometry relative="1" as="geometry"/>
                </mxCell>
                <mxCell id="37" style="edgeStyle=none;html=1;exitX=0.5;exitY=0;exitDx=0;exitDy=0;entryX=0.5;entryY=1;entryDx=0;entryDy=0;shadow=0;fillColor=#a20025;strokeColor=#6F0000;startArrow=classic;startFill=1;endArrow=classic;endFill=1;strokeWidth=2;" edge="1" parent="1" source="12" target="8">
                    <mxGeometry relative="1" as="geometry"/>
                </mxCell>
                <mxCell id="38" style="edgeStyle=none;html=1;exitX=0.5;exitY=1;exitDx=0;exitDy=0;entryX=0.5;entryY=0;entryDx=0;entryDy=0;strokeColor=#F0F0F0;startArrow=classic;startFill=1;endArrow=classic;endFill=1;" edge="1" parent="1" source="12" target="5">
                    <mxGeometry relative="1" as="geometry"/>
                </mxCell>
                <mxCell id="333" style="edgeStyle=none;html=1;exitX=0;exitY=0;exitDx=0;exitDy=0;entryX=1;entryY=1;entryDx=0;entryDy=0;shadow=0;fontSize=16;fontColor=#F0F0F0;startArrow=classic;startFill=1;endArrow=classic;endFill=1;strokeColor=#6F0000;strokeWidth=2;fillColor=#a20025;" edge="1" parent="1" source="12" target="298">
                    <mxGeometry relative="1" as="geometry"/>
                </mxCell>
                <mxCell id="338" style="edgeStyle=none;html=1;exitX=0;exitY=1;exitDx=0;exitDy=0;entryX=1;entryY=0;entryDx=0;entryDy=0;shadow=0;fontSize=16;fontColor=#F0F0F0;startArrow=classic;startFill=1;endArrow=classic;endFill=1;strokeColor=#F0F0F0;strokeWidth=1;" edge="1" parent="1" source="12" target="297">
                    <mxGeometry relative="1" as="geometry"/>
                </mxCell>
                <mxCell id="12" value="Team" style="ellipse;whiteSpace=wrap;html=1;shadow=0;fillColor=#a20025;fontColor=#ffffff;strokeColor=#F0F0F0;" vertex="1" parent="1">
                    <mxGeometry x="280" y="280" width="60" height="60" as="geometry"/>
                </mxCell>
                <mxCell id="32" style="edgeStyle=none;html=1;exitX=0.5;exitY=1;exitDx=0;exitDy=0;entryX=0.5;entryY=0;entryDx=0;entryDy=0;strokeColor=#F0F0F0;startArrow=classic;startFill=1;" edge="1" parent="1" source="13" target="4">
                    <mxGeometry relative="1" as="geometry"/>
                </mxCell>
                <mxCell id="336" style="edgeStyle=none;html=1;exitX=0;exitY=1;exitDx=0;exitDy=0;entryX=1;entryY=0;entryDx=0;entryDy=0;shadow=0;fontSize=16;fontColor=#F0F0F0;startArrow=classic;startFill=1;endArrow=classic;endFill=1;strokeColor=#F0F0F0;strokeWidth=1;" edge="1" parent="1" source="13" target="290">
                    <mxGeometry relative="1" as="geometry"/>
                </mxCell>
                <mxCell id="13" value="Team" style="ellipse;whiteSpace=wrap;html=1;fillColor=#2A2A2A;strokeColor=#F0F0F0;fontColor=#F0F0F0;" vertex="1" parent="1">
                    <mxGeometry x="640" y="280" width="60" height="60" as="geometry"/>
                </mxCell>
                <mxCell id="28" style="edgeStyle=none;html=1;exitX=1;exitY=1;exitDx=0;exitDy=0;entryX=0;entryY=0;entryDx=0;entryDy=0;startArrow=classic;strokeColor=#F0F0F0;startFill=1;endArrow=classic;endFill=1;" edge="1" parent="1" source="291" target="13">
                    <mxGeometry relative="1" as="geometry"/>
                </mxCell>
                <mxCell id="30" style="edgeStyle=none;html=1;exitX=1;exitY=0.5;exitDx=0;exitDy=0;entryX=0;entryY=0.5;entryDx=0;entryDy=0;strokeColor=#F0F0F0;startArrow=classic;startFill=1;endArrow=classic;endFill=1;" edge="1" parent="1" source="14" target="7">
                    <mxGeometry relative="1" as="geometry"/>
                </mxCell>
                <mxCell id="14" value="Team" style="ellipse;whiteSpace=wrap;html=1;fillColor=#2A2A2A;strokeColor=#F0F0F0;fontColor=#F0F0F0;" vertex="1" parent="1">
                    <mxGeometry x="460" y="100" width="60" height="60" as="geometry"/>
                </mxCell>
                <mxCell id="59" value="C" style="ellipse;whiteSpace=wrap;html=1;fillColor=#0050ef;fontColor=#ffffff;strokeColor=#F0F0F0;" vertex="1" parent="1">
                    <mxGeometry x="610" y="540" width="20" height="20" as="geometry"/>
                </mxCell>
                <mxCell id="60" value="C" style="ellipse;whiteSpace=wrap;html=1;fillColor=#0050ef;fontColor=#ffffff;strokeColor=#F0F0F0;" vertex="1" parent="1">
                    <mxGeometry x="590" y="500" width="20" height="20" as="geometry"/>
                </mxCell>
                <mxCell id="61" value="C" style="ellipse;whiteSpace=wrap;html=1;fillColor=#0050ef;fontColor=#ffffff;strokeColor=#F0F0F0;" vertex="1" parent="1">
                    <mxGeometry x="590" y="450" width="20" height="20" as="geometry"/>
                </mxCell>
                <mxCell id="62" value="C" style="ellipse;whiteSpace=wrap;html=1;fillColor=#0050ef;fontColor=#ffffff;strokeColor=#F0F0F0;" vertex="1" parent="1">
                    <mxGeometry x="610" y="415" width="20" height="20" as="geometry"/>
                </mxCell>
                <mxCell id="63" value="C" style="ellipse;whiteSpace=wrap;html=1;fillColor=#0050ef;fontColor=#ffffff;strokeColor=#F0F0F0;" vertex="1" parent="1">
                    <mxGeometry x="650" y="405" width="20" height="20" as="geometry"/>
                </mxCell>
                <mxCell id="64" value="C" style="ellipse;whiteSpace=wrap;html=1;fillColor=#0050ef;fontColor=#ffffff;strokeColor=#F0F0F0;" vertex="1" parent="1">
                    <mxGeometry x="720" y="425" width="20" height="20" as="geometry"/>
                </mxCell>
                <mxCell id="65" value="C" style="ellipse;whiteSpace=wrap;html=1;fillColor=#0050ef;fontColor=#ffffff;strokeColor=#F0F0F0;" vertex="1" parent="1">
                    <mxGeometry x="690" y="405" width="20" height="20" as="geometry"/>
                </mxCell>
                <mxCell id="66" value="C" style="ellipse;whiteSpace=wrap;html=1;fillColor=#0050ef;fontColor=#ffffff;strokeColor=#F0F0F0;" vertex="1" parent="1">
                    <mxGeometry x="740" y="460" width="20" height="20" as="geometry"/>
                </mxCell>
                <mxCell id="67" value="C" style="ellipse;whiteSpace=wrap;html=1;fillColor=#0050ef;fontColor=#ffffff;strokeColor=#F0F0F0;" vertex="1" parent="1">
                    <mxGeometry x="730" y="510" width="20" height="20" as="geometry"/>
                </mxCell>
                <mxCell id="69" value="C" style="ellipse;whiteSpace=wrap;html=1;fillColor=#0050ef;fontColor=#ffffff;strokeColor=#F0F0F0;" vertex="1" parent="1">
                    <mxGeometry x="700" y="540" width="20" height="20" as="geometry"/>
                </mxCell>
                <mxCell id="70" value="C" style="ellipse;whiteSpace=wrap;html=1;fillColor=#0050ef;fontColor=#ffffff;strokeColor=#F0F0F0;" vertex="1" parent="1">
                    <mxGeometry x="660" y="550" width="20" height="20" as="geometry"/>
                </mxCell>
                <mxCell id="91" value="C" style="ellipse;whiteSpace=wrap;html=1;strokeColor=#F0F0F0;fillColor=#2A2A2A;fontColor=#F0F0F0;" vertex="1" parent="1">
                    <mxGeometry x="425" y="542.5" width="20" height="20" as="geometry"/>
                </mxCell>
                <mxCell id="92" value="C" style="ellipse;whiteSpace=wrap;html=1;strokeColor=#F0F0F0;fillColor=#2A2A2A;fontColor=#F0F0F0;" vertex="1" parent="1">
                    <mxGeometry x="405" y="502.5" width="20" height="20" as="geometry"/>
                </mxCell>
                <mxCell id="93" value="C" style="ellipse;whiteSpace=wrap;html=1;strokeColor=#F0F0F0;fillColor=#2A2A2A;fontColor=#F0F0F0;" vertex="1" parent="1">
                    <mxGeometry x="405" y="452.5" width="20" height="20" as="geometry"/>
                </mxCell>
                <mxCell id="94" value="C" style="ellipse;whiteSpace=wrap;html=1;strokeColor=#F0F0F0;fillColor=#2A2A2A;fontColor=#F0F0F0;" vertex="1" parent="1">
                    <mxGeometry x="425" y="417.5" width="20" height="20" as="geometry"/>
                </mxCell>
                <mxCell id="95" value="C" style="ellipse;whiteSpace=wrap;html=1;strokeColor=#F0F0F0;fillColor=#2A2A2A;fontColor=#F0F0F0;" vertex="1" parent="1">
                    <mxGeometry x="465" y="407.5" width="20" height="20" as="geometry"/>
                </mxCell>
                <mxCell id="96" value="C" style="ellipse;whiteSpace=wrap;html=1;strokeColor=#F0F0F0;fillColor=#2A2A2A;fontColor=#F0F0F0;" vertex="1" parent="1">
                    <mxGeometry x="535" y="427.5" width="20" height="20" as="geometry"/>
                </mxCell>
                <mxCell id="97" value="C" style="ellipse;whiteSpace=wrap;html=1;strokeColor=#F0F0F0;fillColor=#2A2A2A;fontColor=#F0F0F0;" vertex="1" parent="1">
                    <mxGeometry x="505" y="407.5" width="20" height="20" as="geometry"/>
                </mxCell>
                <mxCell id="98" value="C" style="ellipse;whiteSpace=wrap;html=1;strokeColor=#F0F0F0;fillColor=#2A2A2A;fontColor=#F0F0F0;" vertex="1" parent="1">
                    <mxGeometry x="555" y="462.5" width="20" height="20" as="geometry"/>
                </mxCell>
                <mxCell id="99" value="C" style="ellipse;whiteSpace=wrap;html=1;strokeColor=#F0F0F0;fillColor=#2A2A2A;fontColor=#F0F0F0;" vertex="1" parent="1">
                    <mxGeometry x="545" y="512.5" width="20" height="20" as="geometry"/>
                </mxCell>
                <mxCell id="100" value="C" style="ellipse;whiteSpace=wrap;html=1;strokeColor=#F0F0F0;fillColor=#2A2A2A;fontColor=#F0F0F0;" vertex="1" parent="1">
                    <mxGeometry x="515" y="542.5" width="20" height="20" as="geometry"/>
                </mxCell>
                <mxCell id="101" value="C" style="ellipse;whiteSpace=wrap;html=1;strokeColor=#F0F0F0;fillColor=#2A2A2A;fontColor=#F0F0F0;" vertex="1" parent="1">
                    <mxGeometry x="475" y="552.5" width="20" height="20" as="geometry"/>
                </mxCell>
                <mxCell id="103" value="C" style="ellipse;whiteSpace=wrap;html=1;fontColor=#F0F0F0;strokeColor=#F0F0F0;fillColor=#2A2A2A;" vertex="1" parent="1">
                    <mxGeometry x="425" y="362.5" width="20" height="20" as="geometry"/>
                </mxCell>
                <mxCell id="104" value="C" style="ellipse;whiteSpace=wrap;html=1;fontColor=#F0F0F0;strokeColor=#F0F0F0;fillColor=#2A2A2A;" vertex="1" parent="1">
                    <mxGeometry x="405" y="322.5" width="20" height="20" as="geometry"/>
                </mxCell>
                <mxCell id="105" value="C" style="ellipse;whiteSpace=wrap;html=1;fontColor=#F0F0F0;strokeColor=#F0F0F0;fillColor=#2A2A2A;" vertex="1" parent="1">
                    <mxGeometry x="405" y="272.5" width="20" height="20" as="geometry"/>
                </mxCell>
                <mxCell id="106" value="C" style="ellipse;whiteSpace=wrap;html=1;fontColor=#F0F0F0;strokeColor=#F0F0F0;fillColor=#2A2A2A;" vertex="1" parent="1">
                    <mxGeometry x="425" y="237.5" width="20" height="20" as="geometry"/>
                </mxCell>
                <mxCell id="107" value="C" style="ellipse;whiteSpace=wrap;html=1;fontColor=#F0F0F0;strokeColor=#F0F0F0;fillColor=#2A2A2A;" vertex="1" parent="1">
                    <mxGeometry x="465" y="227.5" width="20" height="20" as="geometry"/>
                </mxCell>
                <mxCell id="108" value="C" style="ellipse;whiteSpace=wrap;html=1;fontColor=#F0F0F0;strokeColor=#F0F0F0;fillColor=#2A2A2A;" vertex="1" parent="1">
                    <mxGeometry x="535" y="247.5" width="20" height="20" as="geometry"/>
                </mxCell>
                <mxCell id="109" value="C" style="ellipse;whiteSpace=wrap;html=1;fontColor=#F0F0F0;strokeColor=#F0F0F0;fillColor=#2A2A2A;" vertex="1" parent="1">
                    <mxGeometry x="505" y="227.5" width="20" height="20" as="geometry"/>
                </mxCell>
                <mxCell id="110" value="C" style="ellipse;whiteSpace=wrap;html=1;fontColor=#F0F0F0;strokeColor=#F0F0F0;fillColor=#2A2A2A;" vertex="1" parent="1">
                    <mxGeometry x="555" y="282.5" width="20" height="20" as="geometry"/>
                </mxCell>
                <mxCell id="111" value="C" style="ellipse;whiteSpace=wrap;html=1;fontColor=#F0F0F0;strokeColor=#F0F0F0;fillColor=#2A2A2A;" vertex="1" parent="1">
                    <mxGeometry x="545" y="332.5" width="20" height="20" as="geometry"/>
                </mxCell>
                <mxCell id="112" value="C" style="ellipse;whiteSpace=wrap;html=1;fontColor=#F0F0F0;strokeColor=#F0F0F0;fillColor=#2A2A2A;" vertex="1" parent="1">
                    <mxGeometry x="515" y="362.5" width="20" height="20" as="geometry"/>
                </mxCell>
                <mxCell id="113" value="C" style="ellipse;whiteSpace=wrap;html=1;fontColor=#F0F0F0;strokeColor=#F0F0F0;fillColor=#2A2A2A;" vertex="1" parent="1">
                    <mxGeometry x="475" y="372.5" width="20" height="20" as="geometry"/>
                </mxCell>
                <mxCell id="115" value="C" style="ellipse;whiteSpace=wrap;html=1;strokeColor=#F0F0F0;fillColor=#2A2A2A;fontColor=#F0F0F0;" vertex="1" parent="1">
                    <mxGeometry x="610" y="355" width="20" height="20" as="geometry"/>
                </mxCell>
                <mxCell id="116" value="C" style="ellipse;whiteSpace=wrap;html=1;strokeColor=#F0F0F0;fillColor=#2A2A2A;fontColor=#F0F0F0;" vertex="1" parent="1">
                    <mxGeometry x="590" y="315" width="20" height="20" as="geometry"/>
                </mxCell>
                <mxCell id="117" value="C" style="ellipse;whiteSpace=wrap;html=1;strokeColor=#F0F0F0;fillColor=#2A2A2A;fontColor=#F0F0F0;" vertex="1" parent="1">
                    <mxGeometry x="590" y="265" width="20" height="20" as="geometry"/>
                </mxCell>
                <mxCell id="118" value="C" style="ellipse;whiteSpace=wrap;html=1;strokeColor=#F0F0F0;fillColor=#2A2A2A;fontColor=#F0F0F0;" vertex="1" parent="1">
                    <mxGeometry x="610" y="230" width="20" height="20" as="geometry"/>
                </mxCell>
                <mxCell id="119" value="C" style="ellipse;whiteSpace=wrap;html=1;strokeColor=#F0F0F0;fillColor=#2A2A2A;fontColor=#F0F0F0;" vertex="1" parent="1">
                    <mxGeometry x="650" y="220" width="20" height="20" as="geometry"/>
                </mxCell>
                <mxCell id="120" value="C" style="ellipse;whiteSpace=wrap;html=1;strokeColor=#F0F0F0;fillColor=#2A2A2A;fontColor=#F0F0F0;" vertex="1" parent="1">
                    <mxGeometry x="720" y="240" width="20" height="20" as="geometry"/>
                </mxCell>
                <mxCell id="121" value="C" style="ellipse;whiteSpace=wrap;html=1;strokeColor=#F0F0F0;fillColor=#2A2A2A;fontColor=#F0F0F0;" vertex="1" parent="1">
                    <mxGeometry x="690" y="220" width="20" height="20" as="geometry"/>
                </mxCell>
                <mxCell id="122" value="C" style="ellipse;whiteSpace=wrap;html=1;strokeColor=#F0F0F0;fillColor=#2A2A2A;fontColor=#F0F0F0;" vertex="1" parent="1">
                    <mxGeometry x="740" y="275" width="20" height="20" as="geometry"/>
                </mxCell>
                <mxCell id="123" value="C" style="ellipse;whiteSpace=wrap;html=1;strokeColor=#F0F0F0;fillColor=#2A2A2A;fontColor=#F0F0F0;" vertex="1" parent="1">
                    <mxGeometry x="730" y="325" width="20" height="20" as="geometry"/>
                </mxCell>
                <mxCell id="124" value="C" style="ellipse;whiteSpace=wrap;html=1;strokeColor=#F0F0F0;fillColor=#2A2A2A;fontColor=#F0F0F0;" vertex="1" parent="1">
                    <mxGeometry x="700" y="355" width="20" height="20" as="geometry"/>
                </mxCell>
                <mxCell id="125" value="C" style="ellipse;whiteSpace=wrap;html=1;strokeColor=#F0F0F0;fillColor=#2A2A2A;fontColor=#F0F0F0;" vertex="1" parent="1">
                    <mxGeometry x="660" y="365" width="20" height="20" as="geometry"/>
                </mxCell>
                <mxCell id="127" value="C" style="ellipse;whiteSpace=wrap;html=1;fontColor=#F0F0F0;strokeColor=#F0F0F0;fillColor=#2A2A2A;" vertex="1" parent="1">
                    <mxGeometry x="425" y="182.5" width="20" height="20" as="geometry"/>
                </mxCell>
                <mxCell id="128" value="C" style="ellipse;whiteSpace=wrap;html=1;fontColor=#F0F0F0;strokeColor=#F0F0F0;fillColor=#2A2A2A;" vertex="1" parent="1">
                    <mxGeometry x="405" y="142.5" width="20" height="20" as="geometry"/>
                </mxCell>
                <mxCell id="129" value="C" style="ellipse;whiteSpace=wrap;html=1;fontColor=#F0F0F0;strokeColor=#F0F0F0;fillColor=#2A2A2A;" vertex="1" parent="1">
                    <mxGeometry x="405" y="92.5" width="20" height="20" as="geometry"/>
                </mxCell>
                <mxCell id="130" value="C" style="ellipse;whiteSpace=wrap;html=1;fontColor=#F0F0F0;strokeColor=#F0F0F0;fillColor=#2A2A2A;" vertex="1" parent="1">
                    <mxGeometry x="425" y="57.5" width="20" height="20" as="geometry"/>
                </mxCell>
                <mxCell id="131" value="C" style="ellipse;whiteSpace=wrap;html=1;fontColor=#F0F0F0;strokeColor=#F0F0F0;fillColor=#2A2A2A;" vertex="1" parent="1">
                    <mxGeometry x="465" y="47.5" width="20" height="20" as="geometry"/>
                </mxCell>
                <mxCell id="132" value="C" style="ellipse;whiteSpace=wrap;html=1;fontColor=#F0F0F0;strokeColor=#F0F0F0;fillColor=#2A2A2A;" vertex="1" parent="1">
                    <mxGeometry x="535" y="67.5" width="20" height="20" as="geometry"/>
                </mxCell>
                <mxCell id="133" value="C" style="ellipse;whiteSpace=wrap;html=1;fontColor=#F0F0F0;strokeColor=#F0F0F0;fillColor=#2A2A2A;" vertex="1" parent="1">
                    <mxGeometry x="505" y="47.5" width="20" height="20" as="geometry"/>
                </mxCell>
                <mxCell id="134" value="C" style="ellipse;whiteSpace=wrap;html=1;fontColor=#F0F0F0;strokeColor=#F0F0F0;fillColor=#2A2A2A;" vertex="1" parent="1">
                    <mxGeometry x="555" y="102.5" width="20" height="20" as="geometry"/>
                </mxCell>
                <mxCell id="135" value="C" style="ellipse;whiteSpace=wrap;html=1;fontColor=#F0F0F0;strokeColor=#F0F0F0;fillColor=#2A2A2A;" vertex="1" parent="1">
                    <mxGeometry x="545" y="152.5" width="20" height="20" as="geometry"/>
                </mxCell>
                <mxCell id="136" value="C" style="ellipse;whiteSpace=wrap;html=1;fontColor=#F0F0F0;strokeColor=#F0F0F0;fillColor=#2A2A2A;" vertex="1" parent="1">
                    <mxGeometry x="515" y="182.5" width="20" height="20" as="geometry"/>
                </mxCell>
                <mxCell id="137" value="C" style="ellipse;whiteSpace=wrap;html=1;fontColor=#F0F0F0;strokeColor=#F0F0F0;fillColor=#2A2A2A;" vertex="1" parent="1">
                    <mxGeometry x="475" y="192.5" width="20" height="20" as="geometry"/>
                </mxCell>
                <mxCell id="139" value="C" style="ellipse;whiteSpace=wrap;html=1;strokeColor=#F0F0F0;fillColor=#2A2A2A;fontColor=#F0F0F0;" vertex="1" parent="1">
                    <mxGeometry x="610" y="182.5" width="20" height="20" as="geometry"/>
                </mxCell>
                <mxCell id="140" value="C" style="ellipse;whiteSpace=wrap;html=1;strokeColor=#F0F0F0;fillColor=#2A2A2A;fontColor=#F0F0F0;" vertex="1" parent="1">
                    <mxGeometry x="590" y="142.5" width="20" height="20" as="geometry"/>
                </mxCell>
                <mxCell id="141" value="C" style="ellipse;whiteSpace=wrap;html=1;strokeColor=#F0F0F0;fillColor=#2A2A2A;fontColor=#F0F0F0;" vertex="1" parent="1">
                    <mxGeometry x="590" y="92.5" width="20" height="20" as="geometry"/>
                </mxCell>
                <mxCell id="142" value="C" style="ellipse;whiteSpace=wrap;html=1;strokeColor=#F0F0F0;fillColor=#2A2A2A;fontColor=#F0F0F0;" vertex="1" parent="1">
                    <mxGeometry x="610" y="57.5" width="20" height="20" as="geometry"/>
                </mxCell>
                <mxCell id="143" value="C" style="ellipse;whiteSpace=wrap;html=1;strokeColor=#F0F0F0;fillColor=#2A2A2A;fontColor=#F0F0F0;" vertex="1" parent="1">
                    <mxGeometry x="650" y="47.5" width="20" height="20" as="geometry"/>
                </mxCell>
                <mxCell id="144" value="C" style="ellipse;whiteSpace=wrap;html=1;strokeColor=#F0F0F0;fillColor=#2A2A2A;fontColor=#F0F0F0;" vertex="1" parent="1">
                    <mxGeometry x="720" y="67.5" width="20" height="20" as="geometry"/>
                </mxCell>
                <mxCell id="145" value="C" style="ellipse;whiteSpace=wrap;html=1;strokeColor=#F0F0F0;fillColor=#2A2A2A;fontColor=#F0F0F0;" vertex="1" parent="1">
                    <mxGeometry x="690" y="47.5" width="20" height="20" as="geometry"/>
                </mxCell>
                <mxCell id="146" value="C" style="ellipse;whiteSpace=wrap;html=1;strokeColor=#F0F0F0;fillColor=#2A2A2A;fontColor=#F0F0F0;" vertex="1" parent="1">
                    <mxGeometry x="740" y="102.5" width="20" height="20" as="geometry"/>
                </mxCell>
                <mxCell id="147" value="C" style="ellipse;whiteSpace=wrap;html=1;strokeColor=#F0F0F0;fillColor=#2A2A2A;fontColor=#F0F0F0;" vertex="1" parent="1">
                    <mxGeometry x="730" y="152.5" width="20" height="20" as="geometry"/>
                </mxCell>
                <mxCell id="148" value="C" style="ellipse;whiteSpace=wrap;html=1;strokeColor=#F0F0F0;fillColor=#2A2A2A;fontColor=#F0F0F0;" vertex="1" parent="1">
                    <mxGeometry x="700" y="182.5" width="20" height="20" as="geometry"/>
                </mxCell>
                <mxCell id="149" value="C" style="ellipse;whiteSpace=wrap;html=1;strokeColor=#F0F0F0;fillColor=#2A2A2A;fontColor=#F0F0F0;" vertex="1" parent="1">
                    <mxGeometry x="660" y="192.5" width="20" height="20" as="geometry"/>
                </mxCell>
                <mxCell id="151" value="C" style="ellipse;whiteSpace=wrap;html=1;strokeColor=#F0F0F0;fillColor=#2A2A2A;fontColor=#F0F0F0;" vertex="1" parent="1">
                    <mxGeometry x="245" y="540" width="20" height="20" as="geometry"/>
                </mxCell>
                <mxCell id="152" value="C" style="ellipse;whiteSpace=wrap;html=1;strokeColor=#F0F0F0;fillColor=#2A2A2A;fontColor=#F0F0F0;" vertex="1" parent="1">
                    <mxGeometry x="225" y="500" width="20" height="20" as="geometry"/>
                </mxCell>
                <mxCell id="153" value="C" style="ellipse;whiteSpace=wrap;html=1;strokeColor=#F0F0F0;fillColor=#2A2A2A;fontColor=#F0F0F0;" vertex="1" parent="1">
                    <mxGeometry x="225" y="450" width="20" height="20" as="geometry"/>
                </mxCell>
                <mxCell id="154" value="C" style="ellipse;whiteSpace=wrap;html=1;strokeColor=#F0F0F0;fillColor=#2A2A2A;fontColor=#F0F0F0;" vertex="1" parent="1">
                    <mxGeometry x="245" y="415" width="20" height="20" as="geometry"/>
                </mxCell>
                <mxCell id="155" value="C" style="ellipse;whiteSpace=wrap;html=1;strokeColor=#F0F0F0;fillColor=#2A2A2A;fontColor=#F0F0F0;" vertex="1" parent="1">
                    <mxGeometry x="285" y="405" width="20" height="20" as="geometry"/>
                </mxCell>
                <mxCell id="156" value="C" style="ellipse;whiteSpace=wrap;html=1;strokeColor=#F0F0F0;fillColor=#2A2A2A;fontColor=#F0F0F0;" vertex="1" parent="1">
                    <mxGeometry x="355" y="425" width="20" height="20" as="geometry"/>
                </mxCell>
                <mxCell id="157" value="C" style="ellipse;whiteSpace=wrap;html=1;strokeColor=#F0F0F0;fillColor=#2A2A2A;fontColor=#F0F0F0;" vertex="1" parent="1">
                    <mxGeometry x="325" y="405" width="20" height="20" as="geometry"/>
                </mxCell>
                <mxCell id="158" value="C" style="ellipse;whiteSpace=wrap;html=1;strokeColor=#F0F0F0;fillColor=#2A2A2A;fontColor=#F0F0F0;" vertex="1" parent="1">
                    <mxGeometry x="375" y="460" width="20" height="20" as="geometry"/>
                </mxCell>
                <mxCell id="159" value="C" style="ellipse;whiteSpace=wrap;html=1;strokeColor=#F0F0F0;fillColor=#2A2A2A;fontColor=#F0F0F0;" vertex="1" parent="1">
                    <mxGeometry x="365" y="510" width="20" height="20" as="geometry"/>
                </mxCell>
                <mxCell id="160" value="C" style="ellipse;whiteSpace=wrap;html=1;strokeColor=#F0F0F0;fillColor=#2A2A2A;fontColor=#F0F0F0;" vertex="1" parent="1">
                    <mxGeometry x="335" y="540" width="20" height="20" as="geometry"/>
                </mxCell>
                <mxCell id="161" value="C" style="ellipse;whiteSpace=wrap;html=1;strokeColor=#F0F0F0;fillColor=#2A2A2A;fontColor=#F0F0F0;" vertex="1" parent="1">
                    <mxGeometry x="295" y="550" width="20" height="20" as="geometry"/>
                </mxCell>
                <mxCell id="223" value="C" style="ellipse;whiteSpace=wrap;html=1;strokeColor=#F0F0F0;fontColor=#F0F0F0;fillColor=#2A2A2A;" vertex="1" parent="1">
                    <mxGeometry x="65" y="542.5" width="20" height="20" as="geometry"/>
                </mxCell>
                <mxCell id="224" value="C" style="ellipse;whiteSpace=wrap;html=1;strokeColor=#F0F0F0;fontColor=#F0F0F0;fillColor=#2A2A2A;" vertex="1" parent="1">
                    <mxGeometry x="45" y="502.5" width="20" height="20" as="geometry"/>
                </mxCell>
                <mxCell id="225" value="C" style="ellipse;whiteSpace=wrap;html=1;strokeColor=#F0F0F0;fontColor=#F0F0F0;fillColor=#2A2A2A;" vertex="1" parent="1">
                    <mxGeometry x="45" y="452.5" width="20" height="20" as="geometry"/>
                </mxCell>
                <mxCell id="226" value="C" style="ellipse;whiteSpace=wrap;html=1;strokeColor=#F0F0F0;fontColor=#F0F0F0;fillColor=#2A2A2A;" vertex="1" parent="1">
                    <mxGeometry x="65" y="417.5" width="20" height="20" as="geometry"/>
                </mxCell>
                <mxCell id="227" value="C" style="ellipse;whiteSpace=wrap;html=1;strokeColor=#F0F0F0;fontColor=#F0F0F0;fillColor=#2A2A2A;" vertex="1" parent="1">
                    <mxGeometry x="105" y="407.5" width="20" height="20" as="geometry"/>
                </mxCell>
                <mxCell id="228" value="C" style="ellipse;whiteSpace=wrap;html=1;strokeColor=#F0F0F0;fontColor=#F0F0F0;fillColor=#2A2A2A;" vertex="1" parent="1">
                    <mxGeometry x="175" y="427.5" width="20" height="20" as="geometry"/>
                </mxCell>
                <mxCell id="229" value="C" style="ellipse;whiteSpace=wrap;html=1;strokeColor=#F0F0F0;fontColor=#F0F0F0;fillColor=#2A2A2A;" vertex="1" parent="1">
                    <mxGeometry x="145" y="407.5" width="20" height="20" as="geometry"/>
                </mxCell>
                <mxCell id="230" value="C" style="ellipse;whiteSpace=wrap;html=1;strokeColor=#F0F0F0;fontColor=#F0F0F0;fillColor=#2A2A2A;" vertex="1" parent="1">
                    <mxGeometry x="195" y="462.5" width="20" height="20" as="geometry"/>
                </mxCell>
                <mxCell id="231" value="C" style="ellipse;whiteSpace=wrap;html=1;strokeColor=#F0F0F0;fontColor=#F0F0F0;fillColor=#2A2A2A;" vertex="1" parent="1">
                    <mxGeometry x="185" y="512.5" width="20" height="20" as="geometry"/>
                </mxCell>
                <mxCell id="232" value="C" style="ellipse;whiteSpace=wrap;html=1;strokeColor=#F0F0F0;fontColor=#F0F0F0;fillColor=#2A2A2A;" vertex="1" parent="1">
                    <mxGeometry x="155" y="542.5" width="20" height="20" as="geometry"/>
                </mxCell>
                <mxCell id="233" value="C" style="ellipse;whiteSpace=wrap;html=1;strokeColor=#F0F0F0;fontColor=#F0F0F0;fillColor=#2A2A2A;" vertex="1" parent="1">
                    <mxGeometry x="115" y="552.5" width="20" height="20" as="geometry"/>
                </mxCell>
                <mxCell id="235" value="C" style="ellipse;whiteSpace=wrap;html=1;shadow=0;fillColor=#a20025;fontColor=#ffffff;strokeColor=#F0F0F0;" vertex="1" parent="1">
                    <mxGeometry x="245" y="355" width="20" height="20" as="geometry"/>
                </mxCell>
                <mxCell id="236" value="C" style="ellipse;whiteSpace=wrap;html=1;shadow=0;fillColor=#a20025;fontColor=#ffffff;strokeColor=#F0F0F0;" vertex="1" parent="1">
                    <mxGeometry x="225" y="315" width="20" height="20" as="geometry"/>
                </mxCell>
                <mxCell id="237" value="C" style="ellipse;whiteSpace=wrap;html=1;shadow=0;fillColor=#a20025;fontColor=#ffffff;strokeColor=#F0F0F0;" vertex="1" parent="1">
                    <mxGeometry x="225" y="265" width="20" height="20" as="geometry"/>
                </mxCell>
                <mxCell id="238" value="C" style="ellipse;whiteSpace=wrap;html=1;shadow=0;fillColor=#a20025;fontColor=#ffffff;strokeColor=#F0F0F0;" vertex="1" parent="1">
                    <mxGeometry x="245" y="230" width="20" height="20" as="geometry"/>
                </mxCell>
                <mxCell id="239" value="C" style="ellipse;whiteSpace=wrap;html=1;shadow=0;fillColor=#a20025;fontColor=#ffffff;strokeColor=#F0F0F0;" vertex="1" parent="1">
                    <mxGeometry x="285" y="220" width="20" height="20" as="geometry"/>
                </mxCell>
                <mxCell id="240" value="C" style="ellipse;whiteSpace=wrap;html=1;shadow=0;fillColor=#a20025;fontColor=#ffffff;strokeColor=#F0F0F0;" vertex="1" parent="1">
                    <mxGeometry x="355" y="240" width="20" height="20" as="geometry"/>
                </mxCell>
                <mxCell id="241" value="C" style="ellipse;whiteSpace=wrap;html=1;shadow=0;fillColor=#a20025;fontColor=#ffffff;strokeColor=#F0F0F0;" vertex="1" parent="1">
                    <mxGeometry x="325" y="220" width="20" height="20" as="geometry"/>
                </mxCell>
                <mxCell id="242" value="C" style="ellipse;whiteSpace=wrap;html=1;shadow=0;fillColor=#a20025;fontColor=#ffffff;strokeColor=#F0F0F0;" vertex="1" parent="1">
                    <mxGeometry x="375" y="275" width="20" height="20" as="geometry"/>
                </mxCell>
                <mxCell id="243" value="C" style="ellipse;whiteSpace=wrap;html=1;shadow=0;fillColor=#a20025;fontColor=#ffffff;strokeColor=#F0F0F0;" vertex="1" parent="1">
                    <mxGeometry x="365" y="325" width="20" height="20" as="geometry"/>
                </mxCell>
                <mxCell id="244" value="C" style="ellipse;whiteSpace=wrap;html=1;shadow=0;fillColor=#a20025;fontColor=#ffffff;strokeColor=#F0F0F0;" vertex="1" parent="1">
                    <mxGeometry x="335" y="355" width="20" height="20" as="geometry"/>
                </mxCell>
                <mxCell id="245" value="C" style="ellipse;whiteSpace=wrap;html=1;shadow=0;fillColor=#a20025;fontColor=#ffffff;strokeColor=#F0F0F0;" vertex="1" parent="1">
                    <mxGeometry x="295" y="365" width="20" height="20" as="geometry"/>
                </mxCell>
                <mxCell id="369" style="edgeStyle=none;curved=1;html=1;exitX=0;exitY=0.5;exitDx=0;exitDy=0;shadow=0;fontSize=16;fontColor=#F0F0F0;startArrow=classic;startFill=1;endArrow=classic;endFill=1;strokeColor=#F0F0F0;strokeWidth=1;" edge="1" parent="1" source="247">
                    <mxGeometry relative="1" as="geometry">
                        <mxPoint y="230" as="targetPoint"/>
                        <Array as="points">
                            <mxPoint x="10" y="320"/>
                        </Array>
                    </mxGeometry>
                </mxCell>
                <mxCell id="247" value="C" style="ellipse;whiteSpace=wrap;html=1;shadow=0;fillColor=#a20025;fontColor=#ffffff;strokeColor=#F0F0F0;" vertex="1" parent="1">
                    <mxGeometry x="65" y="362.5" width="20" height="20" as="geometry"/>
                </mxCell>
                <mxCell id="368" style="edgeStyle=none;curved=1;html=1;exitX=0;exitY=0;exitDx=0;exitDy=0;entryX=0;entryY=0.75;entryDx=0;entryDy=0;shadow=0;fontSize=16;fontColor=#F0F0F0;startArrow=classic;startFill=1;endArrow=classic;endFill=1;strokeColor=#F0F0F0;strokeWidth=1;" edge="1" parent="1" source="248" target="306">
                    <mxGeometry relative="1" as="geometry">
                        <Array as="points">
                            <mxPoint x="5" y="280"/>
                        </Array>
                    </mxGeometry>
                </mxCell>
                <mxCell id="248" value="C" style="ellipse;whiteSpace=wrap;html=1;shadow=0;fillColor=#a20025;fontColor=#ffffff;strokeColor=#F0F0F0;" vertex="1" parent="1">
                    <mxGeometry x="45" y="322.5" width="20" height="20" as="geometry"/>
                </mxCell>
                <mxCell id="367" style="edgeStyle=none;curved=1;html=1;exitX=0;exitY=0.5;exitDx=0;exitDy=0;entryX=0;entryY=0.75;entryDx=0;entryDy=0;shadow=0;fontSize=16;fontColor=#F0F0F0;startArrow=classic;startFill=1;endArrow=classic;endFill=1;strokeColor=#F0F0F0;strokeWidth=1;" edge="1" parent="1" source="249" target="306">
                    <mxGeometry relative="1" as="geometry">
                        <Array as="points">
                            <mxPoint x="5" y="270"/>
                        </Array>
                    </mxGeometry>
                </mxCell>
                <mxCell id="249" value="C" style="ellipse;whiteSpace=wrap;html=1;shadow=0;fillColor=#a20025;fontColor=#ffffff;strokeColor=#F0F0F0;" vertex="1" parent="1">
                    <mxGeometry x="45" y="272.5" width="20" height="20" as="geometry"/>
                </mxCell>
                <mxCell id="250" value="C" style="ellipse;whiteSpace=wrap;html=1;shadow=0;fillColor=#a20025;fontColor=#ffffff;strokeColor=#F0F0F0;" vertex="1" parent="1">
                    <mxGeometry x="65" y="237.5" width="20" height="20" as="geometry"/>
                </mxCell>
                <mxCell id="251" value="C" style="ellipse;whiteSpace=wrap;html=1;shadow=0;fillColor=#a20025;fontColor=#ffffff;strokeColor=#F0F0F0;" vertex="1" parent="1">
                    <mxGeometry x="105" y="227.5" width="20" height="20" as="geometry"/>
                </mxCell>
                <mxCell id="252" value="C" style="ellipse;whiteSpace=wrap;html=1;shadow=0;fillColor=#a20025;fontColor=#ffffff;strokeColor=#F0F0F0;" vertex="1" parent="1">
                    <mxGeometry x="175" y="247.5" width="20" height="20" as="geometry"/>
                </mxCell>
                <mxCell id="253" value="C" style="ellipse;whiteSpace=wrap;html=1;shadow=0;fillColor=#a20025;fontColor=#ffffff;strokeColor=#F0F0F0;" vertex="1" parent="1">
                    <mxGeometry x="145" y="227.5" width="20" height="20" as="geometry"/>
                </mxCell>
                <mxCell id="254" value="C" style="ellipse;whiteSpace=wrap;html=1;shadow=0;fillColor=#a20025;fontColor=#ffffff;strokeColor=#F0F0F0;" vertex="1" parent="1">
                    <mxGeometry x="195" y="282.5" width="20" height="20" as="geometry"/>
                </mxCell>
                <mxCell id="255" value="C" style="ellipse;whiteSpace=wrap;html=1;shadow=0;fillColor=#a20025;fontColor=#ffffff;strokeColor=#F0F0F0;" vertex="1" parent="1">
                    <mxGeometry x="185" y="332.5" width="20" height="20" as="geometry"/>
                </mxCell>
                <mxCell id="256" value="C" style="ellipse;whiteSpace=wrap;html=1;shadow=0;fillColor=#a20025;fontColor=#ffffff;strokeColor=#F0F0F0;" vertex="1" parent="1">
                    <mxGeometry x="155" y="362.5" width="20" height="20" as="geometry"/>
                </mxCell>
                <mxCell id="257" value="C" style="ellipse;whiteSpace=wrap;html=1;fillColor=#a20025;fontColor=#ffffff;strokeColor=#F0F0F0;" vertex="1" parent="1">
                    <mxGeometry x="115" y="372.5" width="20" height="20" as="geometry"/>
                </mxCell>
                <mxCell id="259" value="C" style="ellipse;whiteSpace=wrap;html=1;shadow=0;fillColor=#a20025;fontColor=#ffffff;strokeColor=#F0F0F0;" vertex="1" parent="1">
                    <mxGeometry x="240" y="182.5" width="20" height="20" as="geometry"/>
                </mxCell>
                <mxCell id="260" value="C" style="ellipse;whiteSpace=wrap;html=1;shadow=0;fillColor=#a20025;fontColor=#ffffff;strokeColor=#F0F0F0;" vertex="1" parent="1">
                    <mxGeometry x="220" y="142.5" width="20" height="20" as="geometry"/>
                </mxCell>
                <mxCell id="261" value="C" style="ellipse;whiteSpace=wrap;html=1;shadow=0;fillColor=#a20025;fontColor=#ffffff;strokeColor=#F0F0F0;" vertex="1" parent="1">
                    <mxGeometry x="220" y="92.5" width="20" height="20" as="geometry"/>
                </mxCell>
                <mxCell id="262" value="C" style="ellipse;whiteSpace=wrap;html=1;shadow=0;fillColor=#a20025;fontColor=#ffffff;strokeColor=#F0F0F0;" vertex="1" parent="1">
                    <mxGeometry x="240" y="57.5" width="20" height="20" as="geometry"/>
                </mxCell>
                <mxCell id="263" value="C" style="ellipse;whiteSpace=wrap;html=1;shadow=0;fillColor=#a20025;fontColor=#ffffff;strokeColor=#F0F0F0;" vertex="1" parent="1">
                    <mxGeometry x="280" y="47.5" width="20" height="20" as="geometry"/>
                </mxCell>
                <mxCell id="264" value="C" style="ellipse;whiteSpace=wrap;html=1;shadow=0;fillColor=#a20025;fontColor=#ffffff;strokeColor=#F0F0F0;" vertex="1" parent="1">
                    <mxGeometry x="350" y="67.5" width="20" height="20" as="geometry"/>
                </mxCell>
                <mxCell id="265" value="C" style="ellipse;whiteSpace=wrap;html=1;shadow=0;fillColor=#a20025;fontColor=#ffffff;strokeColor=#F0F0F0;" vertex="1" parent="1">
                    <mxGeometry x="320" y="47.5" width="20" height="20" as="geometry"/>
                </mxCell>
                <mxCell id="266" value="C" style="ellipse;whiteSpace=wrap;html=1;fillColor=#a20025;fontColor=#ffffff;strokeColor=#F0F0F0;" vertex="1" parent="1">
                    <mxGeometry x="370" y="102.5" width="20" height="20" as="geometry"/>
                </mxCell>
                <mxCell id="267" value="C" style="ellipse;whiteSpace=wrap;html=1;shadow=0;fillColor=#a20025;fontColor=#ffffff;strokeColor=#F0F0F0;" vertex="1" parent="1">
                    <mxGeometry x="360" y="152.5" width="20" height="20" as="geometry"/>
                </mxCell>
                <mxCell id="268" value="C" style="ellipse;whiteSpace=wrap;html=1;shadow=0;fillColor=#a20025;fontColor=#ffffff;strokeColor=#F0F0F0;" vertex="1" parent="1">
                    <mxGeometry x="330" y="182.5" width="20" height="20" as="geometry"/>
                </mxCell>
                <mxCell id="269" value="C" style="ellipse;whiteSpace=wrap;html=1;shadow=0;fillColor=#a20025;fontColor=#ffffff;strokeColor=#F0F0F0;" vertex="1" parent="1">
                    <mxGeometry x="290" y="192.5" width="20" height="20" as="geometry"/>
                </mxCell>
                <mxCell id="271" value="C" style="ellipse;whiteSpace=wrap;html=1;shadow=0;fillColor=#a20025;fontColor=#ffffff;strokeColor=#F0F0F0;" vertex="1" parent="1">
                    <mxGeometry x="65" y="182.5" width="20" height="20" as="geometry"/>
                </mxCell>
                <mxCell id="361" style="edgeStyle=none;curved=1;html=1;exitX=0;exitY=0.5;exitDx=0;exitDy=0;shadow=0;fontSize=16;fontColor=#F0F0F0;startArrow=classic;startFill=1;endArrow=classic;endFill=1;strokeColor=#F0F0F0;strokeWidth=1;" edge="1" parent="1" source="272">
                    <mxGeometry relative="1" as="geometry">
                        <mxPoint y="200" as="targetPoint"/>
                        <Array as="points">
                            <mxPoint x="10" y="153"/>
                        </Array>
                    </mxGeometry>
                </mxCell>
                <mxCell id="272" value="C" style="ellipse;whiteSpace=wrap;html=1;shadow=0;fillColor=#a20025;fontColor=#ffffff;strokeColor=#F0F0F0;" vertex="1" parent="1">
                    <mxGeometry x="45" y="142.5" width="20" height="20" as="geometry"/>
                </mxCell>
                <mxCell id="360" style="edgeStyle=none;curved=1;html=1;exitX=0;exitY=0.5;exitDx=0;exitDy=0;shadow=0;fontSize=16;fontColor=#F0F0F0;startArrow=classic;startFill=1;endArrow=classic;endFill=1;strokeColor=#F0F0F0;strokeWidth=1;" edge="1" parent="1" source="273">
                    <mxGeometry relative="1" as="geometry">
                        <mxPoint y="200" as="targetPoint"/>
                        <Array as="points">
                            <mxPoint y="130"/>
                        </Array>
                    </mxGeometry>
                </mxCell>
                <mxCell id="273" value="C" style="ellipse;whiteSpace=wrap;html=1;shadow=0;fillColor=#a20025;fontColor=#ffffff;strokeColor=#F0F0F0;" vertex="1" parent="1">
                    <mxGeometry x="45" y="92.5" width="20" height="20" as="geometry"/>
                </mxCell>
                <mxCell id="359" style="edgeStyle=none;html=1;exitX=0;exitY=0.5;exitDx=0;exitDy=0;entryX=0;entryY=0.25;entryDx=0;entryDy=0;shadow=0;fontSize=16;fontColor=#F0F0F0;startArrow=classic;startFill=1;endArrow=classic;endFill=1;strokeColor=#F0F0F0;strokeWidth=1;curved=1;" edge="1" parent="1" source="274" target="306">
                    <mxGeometry relative="1" as="geometry">
                        <Array as="points">
                            <mxPoint x="-10" y="110"/>
                        </Array>
                    </mxGeometry>
                </mxCell>
                <mxCell id="274" value="C" style="ellipse;whiteSpace=wrap;html=1;shadow=0;fillColor=#a20025;fontColor=#ffffff;strokeColor=#F0F0F0;" vertex="1" parent="1">
                    <mxGeometry x="65" y="57.5" width="20" height="20" as="geometry"/>
                </mxCell>
                <mxCell id="275" value="C" style="ellipse;whiteSpace=wrap;html=1;shadow=0;fillColor=#a20025;fontColor=#ffffff;strokeColor=#F0F0F0;" vertex="1" parent="1">
                    <mxGeometry x="105" y="47.5" width="20" height="20" as="geometry"/>
                </mxCell>
                <mxCell id="276" value="C" style="ellipse;whiteSpace=wrap;html=1;shadow=0;fillColor=#a20025;fontColor=#ffffff;strokeColor=#F0F0F0;" vertex="1" parent="1">
                    <mxGeometry x="175" y="67.5" width="20" height="20" as="geometry"/>
                </mxCell>
                <mxCell id="277" value="C" style="ellipse;whiteSpace=wrap;html=1;shadow=0;fillColor=#a20025;fontColor=#ffffff;strokeColor=#F0F0F0;" vertex="1" parent="1">
                    <mxGeometry x="145" y="47.5" width="20" height="20" as="geometry"/>
                </mxCell>
                <mxCell id="278" value="C" style="ellipse;whiteSpace=wrap;html=1;shadow=0;fillColor=#a20025;fontColor=#ffffff;strokeColor=#F0F0F0;" vertex="1" parent="1">
                    <mxGeometry x="195" y="102.5" width="20" height="20" as="geometry"/>
                </mxCell>
                <mxCell id="279" value="C" style="ellipse;whiteSpace=wrap;html=1;shadow=0;fillColor=#a20025;fontColor=#ffffff;strokeColor=#F0F0F0;" vertex="1" parent="1">
                    <mxGeometry x="185" y="152.5" width="20" height="20" as="geometry"/>
                </mxCell>
                <mxCell id="280" value="C" style="ellipse;whiteSpace=wrap;html=1;shadow=0;fillColor=#a20025;fontColor=#ffffff;strokeColor=#F0F0F0;" vertex="1" parent="1">
                    <mxGeometry x="155" y="182.5" width="20" height="20" as="geometry"/>
                </mxCell>
                <mxCell id="281" value="C" style="ellipse;whiteSpace=wrap;html=1;shadow=0;fillColor=#a20025;fontColor=#ffffff;strokeColor=#F0F0F0;" vertex="1" parent="1">
                    <mxGeometry x="115" y="192.5" width="20" height="20" as="geometry"/>
                </mxCell>
                <mxCell id="291" value="A" style="rhombus;whiteSpace=wrap;html=1;fillColor=#e3c800;fontColor=#000000;strokeColor=#F0F0F0;" vertex="1" parent="1">
                    <mxGeometry x="565" y="207.5" width="25" height="22.5" as="geometry"/>
                </mxCell>
                <mxCell id="292" value="" style="edgeStyle=none;html=1;exitX=1;exitY=1;exitDx=0;exitDy=0;entryX=0;entryY=0;entryDx=0;entryDy=0;endArrow=classic;strokeColor=#F0F0F0;startArrow=classic;startFill=1;endFill=1;" edge="1" parent="1" source="14" target="291">
                    <mxGeometry relative="1" as="geometry">
                        <mxPoint x="511.21320343559637" y="151.21320343559637" as="sourcePoint"/>
                        <mxPoint x="648.7867965644036" y="288.78679656440363" as="targetPoint"/>
                    </mxGeometry>
                </mxCell>
                <mxCell id="290" value="A" style="rhombus;whiteSpace=wrap;html=1;fillColor=#e3c800;fontColor=#000000;strokeColor=#F0F0F0;" vertex="1" parent="1">
                    <mxGeometry x="566" y="388.5" width="25" height="22.5" as="geometry"/>
                </mxCell>
                <mxCell id="293" value="" style="edgeStyle=none;html=1;exitX=1;exitY=1;exitDx=0;exitDy=0;entryX=0;entryY=0;entryDx=0;entryDy=0;endArrow=classic;strokeColor=#F0F0F0;startArrow=classic;startFill=1;endFill=1;" edge="1" parent="1" source="10" target="290">
                    <mxGeometry relative="1" as="geometry">
                        <mxPoint x="511.21320343559637" y="331.21320343559637" as="sourcePoint"/>
                        <mxPoint x="648.7867965644036" y="468.78679656440363" as="targetPoint"/>
                    </mxGeometry>
                </mxCell>
                <mxCell id="289" value="A" style="rhombus;whiteSpace=wrap;html=1;fillColor=#e3c800;fontColor=#000000;strokeColor=#F0F0F0;" vertex="1" parent="1">
                    <mxGeometry x="390" y="207.5" width="25" height="22.5" as="geometry"/>
                </mxCell>
                <mxCell id="294" value="" style="edgeStyle=none;html=1;exitX=1;exitY=0;exitDx=0;exitDy=0;entryX=0;entryY=1;entryDx=0;entryDy=0;endArrow=classic;strokeColor=#F0F0F0;startArrow=classic;startFill=1;endFill=1;" edge="1" parent="1" source="12" target="289">
                    <mxGeometry relative="1" as="geometry">
                        <mxPoint x="331.21320343559637" y="288.78679656440363" as="sourcePoint"/>
                        <mxPoint x="468.78679656440363" y="151.21320343559637" as="targetPoint"/>
                    </mxGeometry>
                </mxCell>
                <mxCell id="288" value="A" style="rhombus;whiteSpace=wrap;html=1;fillColor=#e3c800;fontColor=#000000;strokeColor=#F0F0F0;" vertex="1" parent="1">
                    <mxGeometry x="385" y="388.5" width="25" height="22.5" as="geometry"/>
                </mxCell>
                <mxCell id="296" value="" style="edgeStyle=none;html=1;exitX=1;exitY=1;exitDx=0;exitDy=0;entryX=0;entryY=0;entryDx=0;entryDy=0;endArrow=classic;strokeColor=#F0F0F0;startArrow=classic;startFill=1;endFill=1;" edge="1" parent="1" source="12" target="288">
                    <mxGeometry relative="1" as="geometry">
                        <mxPoint x="331.21320343559637" y="331.21320343559637" as="sourcePoint"/>
                        <mxPoint x="468.78679656440363" y="468.78679656440363" as="targetPoint"/>
                    </mxGeometry>
                </mxCell>
                <mxCell id="339" style="edgeStyle=none;html=1;exitX=1;exitY=1;exitDx=0;exitDy=0;entryX=0;entryY=0;entryDx=0;entryDy=0;shadow=0;fontSize=16;fontColor=#F0F0F0;startArrow=classic;startFill=1;endArrow=classic;endFill=1;strokeColor=#F0F0F0;strokeWidth=1;" edge="1" parent="1" source="297" target="5">
                    <mxGeometry relative="1" as="geometry"/>
                </mxCell>
                <mxCell id="297" value="A" style="rhombus;whiteSpace=wrap;html=1;fillColor=#e3c800;fontColor=#000000;strokeColor=#F0F0F0;" vertex="1" parent="1">
                    <mxGeometry x="205" y="388.5" width="25" height="22.5" as="geometry"/>
                </mxCell>
                <mxCell id="334" style="edgeStyle=none;html=1;exitX=1;exitY=0;exitDx=0;exitDy=0;entryX=0;entryY=1;entryDx=0;entryDy=0;shadow=0;fontSize=16;fontColor=#F0F0F0;startArrow=classic;startFill=1;endArrow=classic;endFill=1;strokeColor=#6F0000;strokeWidth=2;fillColor=#a20025;" edge="1" parent="1" source="298" target="8">
                    <mxGeometry relative="1" as="geometry"/>
                </mxCell>
                <mxCell id="298" value="A" style="rhombus;whiteSpace=wrap;html=1;shadow=0;fillColor=#a20025;fontColor=#ffffff;strokeColor=#F0F0F0;" vertex="1" parent="1">
                    <mxGeometry x="205" y="207.5" width="25" height="22.5" as="geometry"/>
                </mxCell>
                <mxCell id="307" style="edgeStyle=none;html=1;exitX=1;exitY=0.5;exitDx=0;exitDy=0;entryX=0;entryY=1;entryDx=0;entryDy=0;shadow=0;startArrow=classic;startFill=1;fontColor=#F0F0F0;strokeColor=#F0F0F0;" edge="1" parent="1" source="306" target="2">
                    <mxGeometry relative="1" as="geometry"/>
                </mxCell>
                <mxCell id="308" style="edgeStyle=none;html=1;exitX=1;exitY=0.5;exitDx=0;exitDy=0;shadow=0;startArrow=classic;startFill=1;fontColor=#F0F0F0;strokeColor=#F0F0F0;" edge="1" parent="1" source="306" target="11">
                    <mxGeometry relative="1" as="geometry"/>
                </mxCell>
                <mxCell id="309" style="edgeStyle=none;html=1;exitX=1;exitY=0.5;exitDx=0;exitDy=0;entryX=0;entryY=0.667;entryDx=0;entryDy=0;entryPerimeter=0;shadow=0;startArrow=classic;startFill=1;fontColor=#F0F0F0;strokeColor=#F0F0F0;" edge="1" parent="1" source="306" target="8">
                    <mxGeometry relative="1" as="geometry"/>
                </mxCell>
                <mxCell id="311" style="edgeStyle=none;html=1;exitX=1;exitY=0.5;exitDx=0;exitDy=0;entryX=0;entryY=0.5;entryDx=0;entryDy=0;shadow=0;startArrow=classic;startFill=1;fontColor=#F0F0F0;strokeColor=#F0F0F0;" edge="1" parent="1" source="306" target="298">
                    <mxGeometry relative="1" as="geometry"/>
                </mxCell>
                <mxCell id="306" value="I" style="triangle;whiteSpace=wrap;html=1;fillColor=#FFF5F8;fontColor=#000000;fontStyle=1;strokeColor=#F0F0F0;" vertex="1" parent="1">
                    <mxGeometry y="192.5" width="30" height="40" as="geometry"/>
                </mxCell>
                <mxCell id="316" value="Legend" style="swimlane;shadow=0;strokeColor=#005700;gradientColor=#ffffff;fillColor=#0000ff;gradientDirection=radial;swimlaneFillColor=#1A1A1A;fontColor=#F0F0F0;" vertex="1" parent="1">
                    <mxGeometry x="800" y="-17" width="200" height="620" as="geometry"/>
                </mxCell>
                <mxCell id="323" value="I" style="triangle;whiteSpace=wrap;html=1;fillColor=#FFF5F8;fontColor=#000000;fontStyle=1" vertex="1" parent="316">
                    <mxGeometry x="40" y="209.5" width="25" height="40" as="geometry"/>
                </mxCell>
                <mxCell id="6" value="C" style="ellipse;whiteSpace=wrap;html=1;" vertex="1" parent="1">
                    <mxGeometry x="840" y="82.5" width="20" height="20" as="geometry"/>
                </mxCell>
                <mxCell id="283" value="Customer" style="text;html=1;strokeColor=none;fillColor=none;align=center;verticalAlign=middle;whiteSpace=wrap;rounded=0;fontColor=#F0F0F0;" vertex="1" parent="1">
                    <mxGeometry x="860" y="82.5" width="80" height="20" as="geometry"/>
                </mxCell>
                <mxCell id="284" style="edgeStyle=none;html=1;startArrow=classic;startFill=1;strokeColor=#F0F0F0;" edge="1" parent="1">
                    <mxGeometry relative="1" as="geometry">
                        <mxPoint x="835" y="129.5" as="sourcePoint"/>
                        <mxPoint x="865" y="129.5" as="targetPoint"/>
                    </mxGeometry>
                </mxCell>
                <mxCell id="285" value="Data Channel" style="text;html=1;strokeColor=none;fillColor=none;align=center;verticalAlign=middle;whiteSpace=wrap;rounded=0;fontColor=#F0F0F0;" vertex="1" parent="1">
                    <mxGeometry x="870" y="120" width="80" height="20" as="geometry"/>
                </mxCell>
                <mxCell id="286" value="A" style="rhombus;whiteSpace=wrap;html=1;fillColor=#e3c800;strokeColor=#B09500;fontColor=#000000;" vertex="1" parent="1">
                    <mxGeometry x="837.5" y="156" width="25" height="22.5" as="geometry"/>
                </mxCell>
                <mxCell id="287" value="Aggregator" style="text;html=1;strokeColor=none;fillColor=none;align=center;verticalAlign=middle;whiteSpace=wrap;rounded=0;fontColor=#F0F0F0;" vertex="1" parent="1">
                    <mxGeometry x="862.5" y="155" width="80" height="20" as="geometry"/>
                </mxCell>
                <mxCell id="301" value="Inspector" style="text;html=1;strokeColor=none;fillColor=none;align=center;verticalAlign=middle;whiteSpace=wrap;rounded=0;fontColor=#F0F0F0;" vertex="1" parent="1">
                    <mxGeometry x="860" y="200" width="80" height="20" as="geometry"/>
                </mxCell>
                <mxCell id="312" value="" style="ellipse;whiteSpace=wrap;html=1;shadow=0;fillColor=#0050ef;strokeColor=#001DBC;fontColor=#ffffff;" vertex="1" parent="1">
                    <mxGeometry x="837.5" y="248" width="20" height="20" as="geometry"/>
                </mxCell>
                <mxCell id="313" value="" style="ellipse;whiteSpace=wrap;html=1;shadow=0;fillColor=#a20025;strokeColor=#6F0000;fontColor=#ffffff;" vertex="1" parent="1">
                    <mxGeometry x="837.5" y="283" width="20" height="20" as="geometry"/>
                </mxCell>
                <mxCell id="314" value="Micro Business" style="text;html=1;strokeColor=none;fillColor=none;align=center;verticalAlign=middle;whiteSpace=wrap;rounded=0;fontColor=#F0F0F0;" vertex="1" parent="1">
                    <mxGeometry x="855" y="248" width="120" height="20" as="geometry"/>
                </mxCell>
                <mxCell id="315" value="Defective Units" style="text;html=1;strokeColor=none;fillColor=none;align=center;verticalAlign=middle;whiteSpace=wrap;rounded=0;fontColor=#F0F0F0;" vertex="1" parent="1">
                    <mxGeometry x="860" y="283" width="110" height="20" as="geometry"/>
                </mxCell>
                <mxCell id="327" style="edgeStyle=none;html=1;entryX=0;entryY=1;entryDx=0;entryDy=0;shadow=0;startArrow=classic;startFill=1;fontColor=#F0F0F0;strokeColor=#F0F0F0;" edge="1" parent="1">
                    <mxGeometry relative="1" as="geometry">
                        <mxPoint x="30" y="213" as="sourcePoint"/>
                        <mxPoint x="108.78679656440363" y="151.21320343559637" as="targetPoint"/>
                    </mxGeometry>
                </mxCell>
                <mxCell id="310" style="edgeStyle=none;html=1;exitX=1;exitY=0.5;exitDx=0;exitDy=0;shadow=0;startArrow=classic;startFill=1;fontColor=#F0F0F0;strokeColor=#F0F0F0;" edge="1" parent="1" source="306" target="12">
                    <mxGeometry relative="1" as="geometry"/>
                </mxCell>
            </root>
        </mxGraphModel>
    </diagram>
</mxfile>